<svg width="28" height="27" viewBox="0 0 28 27" fill="none" xmlns="http://www.w3.org/2000/svg">
<path d="M11.4 0.200012C9.70257 0.200012 8.0747 0.874296 6.87447 2.07453C5.67423 3.27476 4.99995 4.90263 4.99995 6.60001C4.99995 8.2974 5.67423 9.92526 6.87447 11.1255C8.0747 12.3257 9.70257 13 11.4 13C13.0973 13 14.7252 12.3257 15.9254 11.1255C17.1257 9.92526 17.8 8.2974 17.8 6.60001C17.8 4.90263 17.1257 3.27476 15.9254 2.07453C14.7252 0.874296 13.0973 0.200012 11.4 0.200012ZM3.41435 14.6C2.99297 14.5983 2.5754 14.6798 2.18559 14.8399C1.79578 14.9999 1.4414 15.2353 1.14277 15.5326C0.844134 15.8299 0.607127 16.1833 0.445337 16.5723C0.283548 16.9614 0.200158 17.3786 0.199951 17.8C0.199951 20.5056 1.53275 22.5456 3.61595 23.8752C5.66715 25.1824 8.43195 25.8 11.4 25.8C12.056 25.8 12.7056 25.7696 13.336 25.7088C12.0798 24.1479 11.3966 22.2036 11.4 20.2C11.4 18.072 12.1552 16.12 13.4112 14.6H3.41595H3.41435ZM14.016 19.272C14.4291 19.1663 14.817 18.9791 15.1568 18.7214C15.4966 18.4637 15.7814 18.1406 15.9946 17.7713C16.2077 17.4019 16.3449 16.9936 16.398 16.5705C16.4512 16.1473 16.4192 15.7178 16.304 15.3072L16.056 14.416C16.4624 14.104 16.9024 13.8368 17.3696 13.6208L17.9104 14.1936C18.2094 14.5109 18.5701 14.7637 18.9704 14.9366C19.3706 15.1095 19.802 15.1987 20.238 15.1989C20.674 15.199 21.1054 15.1101 21.5058 14.9375C21.9062 14.7649 22.2671 14.5123 22.5664 14.1952L23.0848 13.6448C23.5616 13.8688 24.0096 14.1488 24.4208 14.4736L24.2192 15.1504C24.0943 15.5681 24.0562 16.0068 24.107 16.4397C24.1578 16.8727 24.2965 17.2907 24.5147 17.6681C24.7328 18.0455 25.0257 18.3743 25.3755 18.6344C25.7253 18.8946 26.1245 19.0805 26.5488 19.1808L27.1072 19.312C27.1713 19.8522 27.1767 20.3978 27.1232 20.9392L26.3872 21.1264C25.9737 21.2319 25.5854 21.419 25.2454 21.6768C24.9053 21.9345 24.6202 22.2577 24.4068 22.6273C24.1935 22.9969 24.0562 23.4054 24.0031 23.8288C23.95 24.2522 23.9821 24.682 24.0976 25.0928L24.3472 25.9824C23.9395 26.2958 23.4984 26.563 23.032 26.7792L22.4912 26.2064C22.1922 25.8893 21.8317 25.6365 21.4317 25.4637C21.0316 25.2908 20.6004 25.2015 20.1646 25.2012C19.7288 25.2009 19.2976 25.2896 18.8973 25.4619C18.497 25.6342 18.1361 25.8865 17.8368 26.2032L17.3168 26.7536C16.8413 26.5291 16.3931 26.251 15.9808 25.9248L16.184 25.2496C16.309 24.8319 16.3474 24.3929 16.2967 23.9598C16.246 23.5267 16.1073 23.1085 15.8892 22.7309C15.671 22.3534 15.378 22.0244 15.0281 21.7641C14.6781 21.5039 14.2787 21.3179 13.8544 21.2176L13.2944 21.0864C13.2305 20.5467 13.2251 20.0017 13.2784 19.4608L14.016 19.272ZM21.8 20.2C21.8 19.7757 21.6314 19.3687 21.3313 19.0686C21.0313 18.7686 20.6243 18.6 20.2 18.6C19.7756 18.6 19.3686 18.7686 19.0686 19.0686C18.7685 19.3687 18.6 19.7757 18.6 20.2C18.6 20.6244 18.7685 21.0313 19.0686 21.3314C19.3686 21.6314 19.7756 21.8 20.2 21.8C20.6243 21.8 21.0313 21.6314 21.3313 21.3314C21.6314 21.0313 21.8 20.6244 21.8 20.2Z" fill="#858585"/>
</svg>
