<svg width="32" height="32" viewBox="0 0 42 42" fill="none" xmlns="http://www.w3.org/2000/svg">
<path d="M21 0.166656C9.70624 0.166656 0.166656 9.70624 0.166656 21C0.166656 32.2937 9.70624 41.8333 21 41.8333C32.2937 41.8333 41.8333 32.2937 41.8333 21C41.8333 9.70624 32.2937 0.166656 21 0.166656ZM21 10.5833C24.5979 10.5833 27.25 13.2333 27.25 16.8333C27.25 20.4333 24.5979 23.0833 21 23.0833C17.4042 23.0833 14.75 20.4333 14.75 16.8333C14.75 13.2333 17.4042 10.5833 21 10.5833ZM10.3625 30.9417C12.2312 28.1917 15.3479 26.3583 18.9167 26.3583H23.0833C26.6542 26.3583 29.7687 28.1917 31.6375 30.9417C28.975 33.7917 25.1979 35.5833 21 35.5833C16.8021 35.5833 13.025 33.7917 10.3625 30.9417Z" fill="white"/>
</svg>
