<svg width="19" height="18" viewBox="0 0 19 18" fill="none" xmlns="http://www.w3.org/2000/svg">
<path d="M18 3H17V2C17 1.73479 16.8946 1.48043 16.7071 1.2929C16.5196 1.10536 16.2652 1 16 1C15.7348 1 15.4804 1.10536 15.2929 1.2929C15.1054 1.48043 15 1.73479 15 2V3H14C13.7348 3 13.4804 3.10536 13.2929 3.2929C13.1054 3.48043 13 3.73479 13 4C13 4.26522 13.1054 4.51957 13.2929 4.70711C13.4804 4.89464 13.7348 5 14 5H15V6C15 6.26522 15.1054 6.51957 15.2929 6.70711C15.4804 6.89464 15.7348 7 16 7C16.2652 7 16.5196 6.89464 16.7071 6.70711C16.8946 6.51957 17 6.26522 17 6V5H18C18.2652 5 18.5196 4.89464 18.7071 4.70711C18.8946 4.51957 19 4.26522 19 4C19 3.73479 18.8946 3.48043 18.7071 3.2929C18.5196 3.10536 18.2652 3 18 3ZM7 8C7.79113 8 8.56448 7.76541 9.22228 7.32588C9.88008 6.88635 10.3928 6.26164 10.6955 5.53074C10.9983 4.79983 11.0775 3.99556 10.9231 3.21964C10.7688 2.44372 10.3878 1.73098 9.82843 1.17157C9.26902 0.612164 8.55628 0.231202 7.78036 0.0768607C7.00444 -0.0774802 6.20017 0.00173312 5.46927 0.304484C4.73836 0.607234 4.11365 1.11992 3.67412 1.77772C3.2346 2.43552 3 3.20888 3 4C3 5.06087 3.42143 6.07828 4.17157 6.82843C4.92172 7.57857 5.93913 8 7 8ZM13 18C13.2652 18 13.5196 17.8946 13.7071 17.7071C13.8946 17.5196 14 17.2652 14 17C14 15.1435 13.2625 13.363 11.9497 12.0503C10.637 10.7375 8.85652 10 7 10C5.14348 10 3.36301 10.7375 2.05025 12.0503C0.737498 13.363 2.76642e-08 15.1435 0 17C0 17.2652 0.105357 17.5196 0.292893 17.7071C0.48043 17.8946 0.734784 18 1 18" fill="white"/>
</svg>
